# xmcd
#
# Track frame offsets:
#	150
#	19336
#	38033
#	54872
#	69742
#	92083
#	108632
#	128369
#	149095
#	165158
#	184481
#	200524
#	218923
#
# Disc length: 3115 seconds
# Revision: 1
# Processed by: cddbd v1.5.2PL0 Copyright (c) Steve Scherf et al.
# Submitted via: dBpowerAMP V12.0
#
DISCID=bb0c290d
DTITLE=Tim McGraw - The Ultimate Collection, Disc 4
DYEAR=2016
DGENRE=Country
TTITLE0=Free Man
TTITLE1=Bang, Bang, Bang
TTITLE2=Candle For A Cowboy
TTITLE3=How Forever Feels
TTITLE4=The Joker
TTITLE5=I Drink
TTITLE6=Shotgun Rider
TTITLE7=Louisiana
TTITLE8=Wherever The Trail May Lead
TTITLE9=Don't Take The Girl [Acoustic]
TTITLE10=Just When I Needed You Most [Live]
TTITLE11=Felt Good On My Lips [Live Video Version]
TTITLE12=The Ride [Live]
EXTD=
EXTT0=
EXTT1=
EXTT2=
EXTT3=
EXTT4=
EXTT5=
EXTT6=
EXTT7=
EXTT8=
EXTT9=
EXTT10=
EXTT11=
EXTT12=
PLAYORDER=
